<svg width="21" height="21" viewBox="0 0 21 21" fill="none" xmlns="http://www.w3.org/2000/svg">
<g clip-path="url(#clip0_4535_468)">
<path d="M16.2598 11.0062H18.7205V16.8984H16.2598V11.0062Z" fill="#FE8808"/>
<path d="M11.5996 11.0062H14.0605V16.8984H11.5996V11.0062Z" fill="#FE8808"/>
<path d="M6.93945 11.0062H9.40039V16.8984H6.93945V11.0062Z" fill="#FE8808"/>
<path d="M2.2793 11.0062H4.74007V16.8984H2.2793V11.0062Z" fill="#FE8808"/>
<path d="M19.5406 9.16052V8.54529H1.45898V9.16052C1.45898 9.50034 1.7344 9.77576 2.07422 9.77576H18.9254C19.265 9.77576 19.5406 9.50034 19.5406 9.16052Z" fill="#FE8808"/>
<path d="M20.3838 18.1289H0.615234C0.275413 18.1289 0 18.4043 0 18.7441V20.3848C0 20.7246 0.275413 21 0.615234 21H20.3838C20.7236 21 20.999 20.7246 20.999 20.3848V18.7441C20.999 18.4043 20.7236 18.1289 20.3838 18.1289Z" fill="#FE8808"/>
<path d="M0.615179 7.31488H20.3847C20.66 7.31488 20.9017 7.13207 20.9767 6.86723C21.0515 6.60239 20.9416 6.31993 20.7072 6.17573L10.8225 0.0913238C10.6247 -0.0304413 10.3753 -0.0304413 10.1774 0.0913238L0.292662 6.17573C0.0582641 6.32009 -0.0516448 6.60239 0.0233368 6.86723C0.0983185 7.13207 0.340086 7.31488 0.615179 7.31488ZM10.0818 3.61867H10.9183C11.2581 3.61867 11.5335 3.89408 11.5335 4.2339C11.5335 4.57372 11.2581 4.84913 10.9183 4.84913H10.0818C9.74195 4.84913 9.46654 4.57372 9.46654 4.2339C9.46654 3.89408 9.74195 3.61867 10.0818 3.61867Z" fill="#FE8808"/>
</g>
<defs>
<clipPath id="clip0_4535_468">
<rect width="21" height="21" fill="white"/>
</clipPath>
</defs>
</svg>
