<svg width="29" height="28" viewBox="0 0 29 28" fill="none" xmlns="http://www.w3.org/2000/svg">
<g filter="url(#filter0_i_1_864)">
<path d="M14.342 17.7712C13.1638 17.9425 12.3438 19.0614 12.3438 20.2489V24.7133C12.3438 25.0787 12.6325 25.3527 12.9906 25.3527H16.3864C16.756 25.3527 17.0332 25.0672 17.0332 24.7133V20.0662C17.0332 18.6732 15.7858 17.5543 14.342 17.7598V17.7712Z" fill="#3E918C"/>
<path d="M24.0556 9.15056L15.4737 2.77936C15.0002 2.43683 14.3764 2.43683 13.9144 2.77936L5.3325 9.15056C4.68568 9.64153 4.29297 10.3951 4.29297 11.2058V22.7835C4.29297 24.1994 5.45956 25.3526 6.8918 25.3526H9.74474C10.1144 25.3526 10.3916 25.0671 10.3916 24.7132V20.1803C10.3916 18.1479 11.7776 16.3096 13.7874 15.8985C16.5479 15.3505 18.985 17.4285 18.985 20.0547V24.7017C18.985 25.0671 19.2738 25.3412 19.6319 25.3412H22.4848C23.917 25.3412 25.0836 24.1879 25.0836 22.7721V11.1944C25.0836 10.3837 24.6909 9.63011 24.0441 9.13914H24.0556V9.15056Z" fill="#3E918C"/>
</g>
<defs>
<filter id="filter0_i_1_864" x="0.828125" y="0.239258" width="27.7207" height="31.4033" filterUnits="userSpaceOnUse" color-interpolation-filters="sRGB">
<feFlood flood-opacity="0" result="BackgroundImageFix"/>
<feBlend mode="normal" in="SourceGraphic" in2="BackgroundImageFix" result="shape"/>
<feColorMatrix in="SourceAlpha" type="matrix" values="0 0 0 0 0 0 0 0 0 0 0 0 0 0 0 0 0 0 127 0" result="hardAlpha"/>
<feOffset dy="4"/>
<feGaussianBlur stdDeviation="2"/>
<feComposite in2="hardAlpha" operator="arithmetic" k2="-1" k3="1"/>
<feColorMatrix type="matrix" values="0 0 0 0 0 0 0 0 0 0 0 0 0 0 0 0 0 0 0.25 0"/>
<feBlend mode="normal" in2="shape" result="effect1_innerShadow_1_864"/>
</filter>
</defs>
</svg>
